# xmcd CD database file
#
# Track frame offsets:
#	150
#	12735
#	24132
#	38424
#	50374
#	66196
#	83575
#	99345
#	115543
#	130795
#	147592
#	162415
#	179523
#	195597
#	212191
#	232242
#	249816
#	269002
#	285499
#	304963
#	321051
#
# Disc length: 4516 seconds
#
# Revision: 0
# Processed by: cddbd v1.5.1PL2 Copyright (c) Steve Scherf et al.
# Submitted via: ACXtractor (MTCDDB.DLL V2003.12.21)
#
DISCID=2511a215
DTITLE=Monchito Peréz - Musica Borinquña
DYEAR=1980
DGENRE=Latin
TTITLE0=Amor Divino
TTITLE1=Boda Fatal
TTITLE2=Buscando Olvido
TTITLE3=Buscaré Otra Mujer
TTITLE4=Cuando Sale El Sol
TTITLE5=El Amor De Cristo
TTITLE6=El Disparate
TTITLE7=El millonario
TTITLE8=La Casa Sola 
TTITLE9=La mujer Sola
TTITLE10=La Mujer Brava
TTITLE11=No Quiere Volver
TTITLE12=Nunca Me An Visto Llorar
TTITLE13=Perdido En Soledad
TTITLE14=Por Culpa De La Bebida
TTITLE15=Porque Te Vas
TTITLE16=Revivió El Canario
TTITLE17=Si Me Dices Toma
TTITLE18=Solo En Este Mundo
TTITLE19=Solo En Navidad
TTITLE20=Veneno De Tus Besos
EXTD=ID3G:  86 YEAR: 1980
EXTT0=
EXTT1=
EXTT2=
EXTT3=
EXTT4=
EXTT5=
EXTT6=
EXTT7=
EXTT8=
EXTT9=
EXTT10=
EXTT11=
EXTT12=
EXTT13=
EXTT14=
EXTT15=
EXTT16=
EXTT17=
EXTT18=
EXTT19=
EXTT20=
PLAYORDER=
